<svg width="280" height="70" viewBox="0 0 280 70" fill="none" xmlns="http://www.w3.org/2000/svg">
<g clip-path="url(#clip0_694_47)">
<path d="M48.39 34.5578C48.1104 34.316 44.6863 34.573 43.4543 34.898C42.6833 35.1021 41.164 35.2532 40.6123 35.1701C40.2495 35.1096 37.4301 34.316 36.1905 33.7491C35.0265 33.2124 32.449 33.0839 31.4966 32.7513C30.7559 32.4943 30.2343 32.5699 30.2343 32.5699C30.2343 32.5699 27.09 32.5473 26.5231 32.381C22.2147 31.096 18.4883 30.3779 18.4883 30.3779C15.0643 27.9592 12.517 27.6191 11.6705 27.415C11.6327 27.2336 11.5798 27.0446 11.5117 26.8179C11.4815 26.7271 12.0635 24.8753 12.4944 23.8247C13.4619 23.9758 18.0424 25.0416 19.7279 25.0189C20.3402 25.0114 21.1943 25.7143 21.9199 25.9033C22.9252 26.1603 27.226 26.7347 27.8307 26.7876C28.4354 26.8405 28.2842 27.2487 28.3674 27.551C28.511 28.065 28.647 28.186 28.8209 28.4505C28.9947 28.7151 29.0552 29.3727 29.2442 29.025C29.3651 28.8058 29.3424 28.3598 29.2442 28.0726C29.3727 28.1708 29.5163 28.2918 29.6221 28.4203C29.8337 28.6773 29.9774 28.7755 30 28.9418C30 28.9418 30.4913 30.4157 30.7105 30.3628C30.8466 30.3326 31.1111 30.4989 30.9146 29.8715C30.8768 29.7581 30.6727 28.9645 30.7105 29.1005C30.9146 29.8715 31.353 30.514 31.353 30.514C31.7385 30.7332 31.6931 30.2872 31.5647 29.8262C31.6024 29.7581 31.6402 29.6145 31.6856 29.3575C31.7385 29.0779 31.2774 28.2086 31.1036 27.9441C31.1036 27.9441 31.867 28.3976 32.1391 28.3749C32.8798 28.2993 30.5216 27.158 30.2873 26.7801C29.8262 26.0469 29.4256 26.1225 28.836 25.8504C28.2464 25.5782 24.7468 24.4823 23.9834 24.2555C23.2275 24.0287 21.6176 23.3938 21.1187 23.356C20.6198 23.3182 17.808 22.5321 17.1656 22.26C16.5458 21.9955 15.5102 20.6803 13.288 20.582C13.2578 20.5216 13.2275 20.4686 13.1822 20.4157C12.5926 19.6523 11.7838 19.2895 12.003 17.7022C12.0635 17.2714 12.2449 16.6138 12.2449 16.6138C12.2449 16.6138 13.4694 15.8881 13.6584 15.6312C14.4445 15.6765 15.2003 14.7241 15.2003 14.7241C15.4044 14.4596 16.3568 12.2525 15.7219 10.907C15.7672 10.8239 15.8126 10.7408 15.9411 10.4913C15.737 10.5442 15.6916 10.4913 15.5934 10.4233C15.5329 10.3175 15.548 9.88664 15.5783 9.81861C15.0945 10.2117 15.1247 9.50115 15.1852 9.05519C15.0643 9.28951 14.7166 9.59941 14.5881 9.61453C14.4218 9.62964 14.4067 9.3273 14.3613 9.18369C14.0514 9.72791 13.8851 9.64476 13.802 9.3273C13.7264 9.49359 13.6584 9.66744 13.5904 9.83373C12.5624 9.92443 11.5798 10.5442 11.2774 11.0431C10.7861 11.8519 10.7332 12.0484 10.7332 12.0484C10.7332 12.0484 10.1965 12.0937 10.2041 12.8723C10.2117 13.5148 10.446 13.545 10.446 13.545C10.446 13.545 10.0303 15.1323 9.68256 15.7672C9.56163 15.9864 9.42557 16.2358 9.28196 16.4777C9.0552 16.0847 8.836 15.6992 8.72262 15.3515C8.23888 13.9532 7.56616 11.1565 7.57372 10.6198C7.58128 10.0832 7.3772 8.8889 7.21091 8.0499C7.04462 7.2109 6.91612 4.23282 6.43993 2.60772C6.24341 1.93501 5.12474 1.67802 4.58808 1.42859C4.05142 1.17915 2.89496 0.740756 2.63041 0.468647C2.36586 0.196538 2.09375 0.219214 2.09375 0.219214C1.8292 0.00757343 1.41348 -0.120922 1.55709 0.151186C1.7007 0.423295 2.43389 1.11868 2.43389 1.11868C2.43389 1.11868 2.19201 1.29253 1.38324 1.48905C0.574476 1.68558 1.07334 2.02571 1.31522 1.96525C1.55709 1.91234 2.69844 1.5722 2.90252 1.6629C3.1066 1.75361 3.69617 2.35829 3.66594 2.6304C3.6357 2.89495 2.94787 2.73622 2.53215 2.72866C2.11643 2.72866 1.70826 3.28044 2.0484 3.25776C2.58506 3.22753 3.69617 3.29556 4.01363 3.40893C5.3515 3.88512 5.30615 3.39382 5.3515 3.64325C5.47999 4.28573 5.20033 10.0076 5.25324 10.4611C5.45732 12.4188 6.54575 14.3991 6.57599 15.7067C6.59866 17.0068 6.89345 18.8436 6.41726 19.5994C6.41726 19.5994 6.41726 19.6145 6.4097 19.6145C6.0998 19.9169 5.87304 20.1361 5.87304 20.1361C5.87304 20.1361 4.59564 21.0355 4.52005 22.963C4.45959 24.3991 5.39685 26.9539 5.52535 27.8231C5.73699 29.2971 5.80501 30.514 5.98642 31.1414C6.18294 31.8141 6.56087 33.3258 6.8481 34.4445C6.8481 34.4445 6.84054 34.452 6.83298 34.4596C6.64402 35.7899 7.66442 39.864 7.67198 40.8012C7.67954 41.7385 8.14061 43.3258 8.06503 45.4044C8.01968 46.6516 7.83071 50.7256 7.14288 52.0333C6.7196 52.8269 8.79821 52.0559 9.04008 51.7158C9.28196 51.3832 9.59942 52.1844 10.1663 51.8972C10.7256 51.61 11.1187 51.3454 11.2321 51.7234C11.3455 52.1089 11.3455 55.5253 11.3077 56.3946C11.2699 57.2638 11.3832 59.4256 11.1111 60.4611C10.9146 61.2169 10.5669 63.4694 10.4762 64.0968C10.4611 64.0665 10.189 65.412 10.5669 66.5835C10.7861 67.2714 11.9879 69.607 12.2298 69.7733C12.5624 70.0151 12.8798 70.1663 13.2275 69.6674C13.5752 69.161 13.0008 67.3092 12.8723 66.7271C12.6909 65.9108 13.6055 64.777 13.802 64.4445C14.0968 63.9456 14.966 63.7113 13.9683 62.7211C13.6811 62.4414 13.1595 62.5246 13.1595 62.5246C13.2351 61.6553 14.2253 58.1557 14.452 57.6266C14.6788 57.0975 15.1399 56.1527 15.0189 55.2608C14.898 54.3689 14.5503 50.6501 14.5503 50.6501C14.5503 50.6501 16.508 49.7279 16.6289 49.418C16.9161 48.6848 17.6266 49.0174 17.7854 48.647C17.9517 48.2767 19.4936 47.7022 19.9471 47.2562C20.9448 46.2585 23.8851 44.9131 24.1875 43.938C24.4898 42.9705 26.0015 42.9025 27.808 40.3931C28.3296 39.6674 28.5034 41.353 30.7861 37.0068C30.9902 36.6289 30.8617 36.9086 31.0582 36.455C31.0582 36.455 34.7015 36.5987 35.6463 36.5533C37.8534 36.455 39.1308 36.7952 39.8035 36.7876C39.8035 36.7876 41.1414 37.0295 41.5117 37.1202C41.8443 37.2033 43.7642 37.4906 44.0439 37.4981C44.709 37.5132 46.8935 36.9388 47.6418 36.5609C47.861 36.4475 48.5639 35.7597 48.8284 35.412C49.1157 35.034 48.8587 34.966 48.3976 34.5654L48.39 34.5578ZM31.2018 28.904L31.1867 28.8587C31.1867 28.8587 31.2018 28.8889 31.2018 28.904Z" fill="#CC94A3"/>
<path d="M0 24.1119C1.01285 24.316 2.61527 24.3613 3.33333 24.3084C6.40967 24.059 7.14286 23.6886 9.04006 23.1142C12.2298 22.1542 14.966 20.6047 18.0121 19.2971C19.0779 18.836 20.2192 18.3749 21.3983 18.322C22.124 18.2842 22.963 18.4505 23.4845 18.9947C23.6508 19.1761 23.7339 19.3727 23.7944 19.607C23.802 19.6372 23.7944 19.675 23.802 19.7052C23.8549 19.9849 23.8549 18.8511 23.802 19.1686C23.7944 19.2215 23.7868 19.282 23.7793 19.3424C23.7491 19.486 23.7037 19.6221 23.6508 19.7506C23.3711 20.4309 22.8647 21.0204 22.3658 21.5571C20.7861 23.2502 18.8964 24.6637 17.0446 26.0469C14.8148 27.7098 12.5321 29.3046 10.2797 30.9524C8.34467 32.3734 6.37944 33.802 4.64853 35.4724C3.62812 36.455 2.6833 37.5662 1.935 38.768C1.1867 39.9698 0.702948 41.285 0.952381 42.6909C1.22449 44.2253 2.92517 44.5427 4.22525 44.4369C5.95616 44.3009 7.65684 43.6659 9.2517 43.0083C13.8927 41.1111 18.2615 38.5639 22.6833 36.2056C24.9811 34.9811 27.294 33.7718 29.6523 32.6682C31.678 31.7234 33.7566 30.8315 35.9108 30.2192C37.4603 29.7808 39.1761 29.418 40.7861 29.7581C41.3832 29.8866 42.0786 30.1134 42.4641 30.6198C42.6228 30.839 42.6833 31.0582 42.7286 31.3228C42.774 31.5873 42.7816 30.4687 42.7211 30.9751C42.7135 31.0355 42.6984 31.1036 42.6909 31.164C42.6531 31.3454 42.6002 31.5193 42.5397 31.6856C42.2222 32.5321 41.7007 33.3031 41.1716 34.0287C40.3779 35.1247 39.5087 36.1678 38.6319 37.1958C36.1224 40.1361 33.5299 42.9932 31.028 45.9411C29.6221 47.5964 28.2388 49.2517 27.0597 51.0885C26.0469 52.6606 24.7317 54.7468 23.8851 56.3568C22.6606 58.6773 21.9199 60.0378 20.9599 62.5095C20.8466 62.8118 20.6122 63.4089 20.2192 64.8299C20.5064 65.0038 21.4588 65.4346 21.7385 65.6312C21.8594 64.3235 22.2525 62.3129 22.7513 60.8617C23.8851 57.551 25.3893 54.3462 27.3318 51.421C28.5488 49.5919 29.9773 47.929 31.3983 46.2585C32.8194 44.5881 34.1572 43.0688 35.548 41.4891C37.5435 39.2215 39.6447 36.9841 41.3757 34.4974C41.8745 33.7869 42.3734 33.0235 42.6228 32.1845C42.7211 31.8519 42.7438 31.5344 42.7438 31.1943C42.7438 30.8541 42.774 30.4989 42.6531 30.1739C42.1844 28.9343 40.257 28.8209 39.1534 28.8662C37.2487 28.9494 35.3817 29.5465 33.613 30.2117C31.2925 31.0809 29.0552 32.1542 26.8481 33.2653C22.1315 35.6463 17.5661 38.2993 12.8193 40.6198C10.8995 41.5571 8.93424 42.4641 6.89342 43.099C5.56311 43.5072 4.00605 43.9229 2.62283 43.5525C1.95767 43.3711 1.34543 42.9554 1.08088 42.2978C1.02041 42.1467 0.997732 41.9955 0.959939 41.8443C0.891912 41.5571 0.899471 42.2525 0.959939 41.9426C0.975057 41.8594 0.982615 41.7687 1.00529 41.6856C1.08088 41.3152 1.20937 40.9524 1.36054 40.6123C1.70824 39.8413 2.18443 39.1232 2.69841 38.4505C4.18745 36.4928 6.05442 34.9207 7.99698 33.4241C12.2525 30.1436 16.8783 27.294 20.907 23.7264C21.6251 23.0915 22.3356 22.4263 22.9327 21.6705C23.3258 21.1792 23.7339 20.6047 23.8171 19.9698C23.8927 19.4104 23.9305 18.6848 23.5299 18.2313C23.0159 17.6644 22.1542 17.4981 21.4286 17.5284C20.257 17.5813 19.1081 18.0499 18.0423 18.5034C16.6138 19.1157 15.223 19.8186 13.802 20.4687C12.1769 21.217 10.0076 22.1013 8.83598 22.4641C8.03477 22.7135 5.27589 23.5526 3.28798 23.4996C2.39607 23.477 1.20181 23.2729 0.302343 23.0537C0.325019 23.0537 0 24.0741 0.0302343 24.0741H0V24.1119Z" fill="#CC94A3"/>
<path d="M185.639 36.1602L174.233 8.97958L169.728 11.0053L170.325 12.2978C170.552 12.7589 170.658 13.1897 170.65 13.6432L160.559 38.6092C159.72 39.9093 158.866 40.5669 157.952 40.8995V41.5419H163.288V40.8995C162.328 40.6727 161.859 40.0756 161.92 38.9418L165.571 29.9168H177.785L180.393 36.1678C181.678 39.2063 182.328 40.4006 180.809 40.907V41.5495H189.176V40.907C188.118 40.4006 186.924 39.2063 185.631 36.1678L185.639 36.1602ZM166.13 28.5261L171.572 15.0567L177.196 28.5261H166.13Z" fill="#6C6366"/>
<path d="M218.08 36.6289V29.1912C218.08 25.1398 216.463 23.4769 213.59 23.4769C211.126 23.4769 208.851 25.0642 207.143 26.6289C206.553 24.4142 205.117 23.4769 202.933 23.4769C200.499 23.4769 198.261 25.034 196.546 26.5911V23.681L196.236 23.4013L192.124 25.4119V25.8957C192.902 26.2736 193.371 26.6213 193.371 28.6621V36.6213C193.371 39.1156 193.152 40.1511 192.124 40.5366V41.0204H197.793V40.5366C196.765 40.1587 196.546 39.1156 196.546 36.6213V27.1731C198.231 25.6462 199.569 24.8526 201.035 24.8526C203.341 24.8526 204.248 26.6893 204.248 29.8035V36.6213C204.248 39.1156 204.029 40.1511 203.001 40.5366V41.0204H208.67V40.5366C207.642 40.1587 207.422 39.1156 207.422 36.6213V29.1837C207.422 28.4202 207.362 27.7324 207.234 27.105C208.881 25.6462 210.227 24.8526 211.686 24.8526C213.991 24.8526 214.898 26.6893 214.898 29.8035V36.6213C214.898 39.1156 214.679 40.1511 213.651 40.5366V41.0204H219.32V40.5366C218.292 40.1587 218.073 39.1156 218.073 36.6213L218.08 36.6289Z" fill="#6C6366"/>
<path d="M231.345 23.4769C226.606 23.4769 222.101 27.2184 222.101 32.8193C222.101 38.6999 226.841 41.3681 231.345 41.3681C235.427 41.3681 240.552 38.0121 240.552 32.0937C240.552 26.1753 235.639 23.4769 231.345 23.4769ZM232.555 40.6047C227.989 40.6047 225.563 34.3008 225.563 30.2192C225.563 27.2411 226.568 24.4747 229.577 24.1648C234.044 23.7112 237.052 30.325 237.052 34.7241C237.052 37.6644 235.941 40.6047 232.555 40.6047Z" fill="#6C6366"/>
<path d="M260.008 36.6289V23.681L259.66 23.4014L255.094 25.4119V25.8957C255.956 26.2736 256.478 26.6213 256.478 28.6621V37.3469C254.785 39.0476 253.084 39.9773 251.527 39.9773C248.859 39.9773 248.269 38.1406 248.269 34.4369V23.6735L247.921 23.3938L243.356 25.4044V25.8881C244.218 26.2661 244.739 26.6138 244.739 28.6546V34.8828C244.739 39.1081 246.266 41.3605 249.932 41.3605C252.109 41.3605 254.497 39.9773 256.478 38.0726V39.6296C256.478 40.5291 256.961 41.0128 257.861 41.0128H261.391V40.5291C260.249 40.1512 260.008 39.1081 260.008 36.6138V36.6289Z" fill="#6C6366"/>
<path d="M277.173 23.4769C275.51 23.4769 274.195 23.9229 272.918 24.8299C271.807 25.5933 270.907 26.6667 270.393 27.876V23.6886L270.045 23.4089L265.48 25.4195V25.9032C266.342 26.2812 266.863 26.6289 266.863 28.6697V36.6289C266.863 39.1232 266.621 40.1587 265.48 40.5442V41.028H271.776V40.5442C270.635 40.1663 270.393 39.1232 270.393 36.6289V29.743C270.499 28.0121 271.67 26.455 272.54 25.7294C274.754 26.4248 276.07 26.7649 277.037 26.7649C278.632 26.7649 279.388 25.2759 279.388 24.5125C279.388 23.749 278.352 23.4769 277.173 23.4769Z" fill="#6C6366"/>
<path d="M76.1527 22.4112C81.9501 21.3983 83.9229 18.5487 83.9229 15.4195C83.9229 11.6931 81.164 9.34995 73.6206 9.34995H62.26V9.99242C63.7793 10.4988 64.0967 11.8821 64.0967 15.1927V35.6992C64.0967 39.0098 63.7717 40.393 62.26 40.8995V41.5419H72.2373C83.5525 41.5419 87.7324 36.1149 87.6417 30.7332C87.5964 26.13 83.7339 22.6379 76.1451 22.4112H76.1527ZM68.9796 10.0907H70.8617C75.5555 10.0907 78.4505 12.4338 78.4505 16.4852C78.4505 19.7052 76.4248 22.2827 73.0688 22.2827H68.9796V10.0907ZM72.6531 40.8088H71.3681C69.3877 40.8088 68.9796 40.1134 68.9796 36.8027V23.0083H72.2449C79.1005 23.0083 82.1769 26.9161 82.1769 32.4338C82.1769 37.3091 79.2819 40.8012 72.6606 40.8012L72.6531 40.8088Z" fill="#6C6366"/>
<path d="M117.589 36.6289V10.3628L117.241 10.0831L112.676 12.0937V12.5775C113.537 12.9554 114.059 16.2358 114.059 18.2766V36.6213C114.059 39.1156 113.817 40.1512 112.676 40.5366V41.0204H118.972V40.5366C117.831 40.1587 117.589 39.1156 117.589 36.6213V36.6289Z" fill="#6C6366"/>
<path d="M127.483 36.6289V10.3628L127.135 10.0831L122.57 12.0937V12.5775C123.432 12.9554 123.953 16.2358 123.953 18.2766V36.6213C123.953 39.1156 123.711 40.1512 122.57 40.5366V41.0204H128.866V40.5366C127.725 40.1587 127.483 39.1156 127.483 36.6213V36.6289Z" fill="#6C6366"/>
<path d="M142.751 38.5639C138.352 38.5639 135.586 35.3439 135.586 30.8087C135.586 30.4988 135.616 30.2116 135.646 29.9093H148.783C148.783 29.8337 148.775 29.7732 148.768 29.7052H148.775C148.775 29.6145 148.753 29.5314 148.745 29.4406C148.745 29.3877 148.738 29.3273 148.73 29.2819C148.511 26.4021 146.062 23.4769 141.61 23.4769C137.158 23.4769 132.509 27.1428 132.509 33.031C132.509 38.9191 136.871 41.3756 140.71 41.3756C144.55 41.3756 147.46 38.6092 149.055 36.1829L148.745 35.8352C147.294 37.4603 145.321 38.5714 142.759 38.5714L142.751 38.5639ZM140.537 24.0967C142.729 24.127 144.49 26.0317 145.125 28.5261H135.835C136.387 26.1149 137.853 24.0665 140.537 24.0967Z" fill="#6C6366"/>
<path d="M102.555 38.5639C98.1557 38.5639 95.3893 35.3439 95.3893 30.8087C95.3893 30.4988 95.4195 30.2116 95.4497 29.9093H108.587C108.587 29.8337 108.579 29.7732 108.571 29.7052H108.579C108.579 29.6145 108.556 29.5314 108.549 29.4406C108.549 29.3877 108.541 29.3273 108.534 29.2819C108.314 26.4021 105.865 23.4769 101.413 23.4769C96.9615 23.4769 92.3129 27.1428 92.3129 33.031C92.3129 38.9191 96.6742 41.3756 100.514 41.3756C104.354 41.3756 107.264 38.6092 108.859 36.1829L108.549 35.8352C107.098 37.4603 105.125 38.5714 102.562 38.5714L102.555 38.5639ZM100.34 24.0967C102.532 24.127 104.293 26.0317 104.921 28.5261H95.6311C96.1829 26.1149 97.6493 24.0665 100.333 24.0967H100.34Z" fill="#6C6366"/>
<path d="M112.411 58.0197C112.411 57.2562 112.396 56.5079 112.366 55.7672C112.336 55.0265 112.305 54.2857 112.268 53.5525C112.57 53.5752 112.872 53.5979 113.182 53.613C113.492 53.6281 113.802 53.6357 114.097 53.6357C114.392 53.6357 114.701 53.6206 115.011 53.5903C115.321 53.5601 115.631 53.545 115.926 53.545C116.425 53.545 116.893 53.5828 117.332 53.6584C117.77 53.7339 118.156 53.87 118.496 54.059C118.828 54.2479 119.093 54.5049 119.289 54.8299C119.486 55.155 119.584 55.5556 119.584 56.0393C119.584 56.8934 119.312 57.5662 118.776 58.0499C118.239 58.5336 117.536 58.8738 116.674 59.0703V59.1081C117.702 59.1534 118.511 59.4029 119.108 59.8564C119.705 60.3099 120 61.028 120 62.0182C120 62.6682 119.864 63.2048 119.599 63.6432C119.335 64.0816 118.987 64.4369 118.564 64.709C118.141 64.9811 117.664 65.1701 117.15 65.2835C116.636 65.3968 116.122 65.4497 115.616 65.4497C115.336 65.4497 115.057 65.4497 114.777 65.4346C114.497 65.4195 114.218 65.4195 113.938 65.4195H113.099C112.819 65.4195 112.54 65.4271 112.26 65.4573C112.298 64.7166 112.328 63.9834 112.358 63.2502C112.388 62.517 112.404 61.7687 112.404 61.0053V58.0272L112.411 58.0197ZM114.769 58.8738C115.17 58.8738 115.578 58.836 115.971 58.7528C116.364 58.6697 116.727 58.5336 117.037 58.3447C117.347 58.1557 117.596 57.8987 117.793 57.5813C117.982 57.2638 118.08 56.8632 118.08 56.3795C118.08 55.8957 117.997 55.5253 117.823 55.2457C117.649 54.966 117.43 54.7468 117.166 54.5881C116.901 54.4293 116.599 54.3311 116.266 54.2782C115.933 54.2253 115.593 54.2026 115.261 54.2026C114.958 54.2026 114.709 54.2101 114.497 54.2253C114.286 54.2404 114.104 54.2631 113.946 54.2857C113.923 54.8375 113.9 55.3893 113.878 55.9335C113.855 56.4777 113.84 57.0219 113.84 57.5813V58.8813H114.777L114.769 58.8738ZM113.832 61.2774C113.832 61.867 113.84 62.449 113.87 63.0234C113.893 63.5979 113.915 64.1799 113.938 64.7695C114.157 64.7922 114.414 64.8148 114.717 64.8299C115.019 64.8451 115.321 64.8526 115.639 64.8526C116.009 64.8526 116.364 64.7922 116.704 64.6637C117.045 64.5352 117.339 64.3462 117.596 64.1043C117.853 63.8549 118.05 63.5525 118.201 63.1897C118.352 62.8269 118.428 62.4112 118.428 61.9501C118.428 61.4513 118.337 61.0431 118.156 60.7256C117.974 60.4082 117.717 60.1587 117.385 59.9773C117.052 59.7959 116.652 59.675 116.183 59.607C115.714 59.5389 115.193 59.5011 114.618 59.5011H113.84V61.2699L113.832 61.2774Z" fill="#CC94A3"/>
<path d="M124.86 58.0575C125.382 57.6644 125.858 57.3999 126.296 57.2638C126.735 57.1278 127.188 57.0597 127.649 57.0597C128.065 57.0597 128.443 57.1202 128.791 57.2411C129.138 57.3621 129.433 57.5359 129.675 57.7627C129.917 57.9894 130.106 58.2615 130.249 58.579C130.386 58.8965 130.454 59.2442 130.454 59.6296C130.454 60.2872 130.438 60.9448 130.416 61.5949C130.393 62.2449 130.378 62.9403 130.378 63.6659C130.378 63.802 130.378 63.9531 130.386 64.1043C130.386 64.263 130.416 64.3991 130.461 64.52C130.506 64.641 130.574 64.7392 130.658 64.8224C130.741 64.9055 130.877 64.9433 131.043 64.9433C131.104 64.9433 131.164 64.9433 131.225 64.9358C131.285 64.9358 131.345 64.9131 131.406 64.8753V65.2532C131.277 65.3137 131.119 65.359 130.93 65.3893C130.741 65.4195 130.529 65.4422 130.295 65.4422C129.924 65.4422 129.645 65.3439 129.448 65.155C129.252 64.966 129.138 64.7166 129.101 64.4218C128.685 64.8375 128.277 65.1398 127.869 65.3439C127.468 65.5404 126.969 65.6387 126.379 65.6387C126.092 65.6387 125.805 65.6009 125.533 65.5178C125.253 65.4346 125.011 65.3061 124.8 65.1172C124.588 64.9358 124.414 64.709 124.278 64.452C124.142 64.195 124.082 63.8927 124.082 63.5601C124.082 62.8647 124.301 62.3281 124.732 61.9501C125.163 61.5722 125.76 61.3152 126.523 61.1867C127.143 61.0809 127.634 60.9902 127.989 60.9146C128.345 60.839 128.602 60.7634 128.768 60.6803C128.934 60.5971 129.04 60.5064 129.07 60.3931C129.101 60.2797 129.123 60.1436 129.123 59.9698C129.123 59.6825 129.085 59.4029 129.017 59.1383C128.949 58.8738 128.836 58.6395 128.685 58.4429C128.534 58.2464 128.337 58.0877 128.095 57.9668C127.853 57.8458 127.559 57.7853 127.211 57.7853C126.75 57.7853 126.319 57.8912 125.918 58.0953C125.518 58.2993 125.223 58.5941 125.026 58.9645H124.838V58.065L124.86 58.0575ZM129.138 61.1414C128.942 61.2094 128.715 61.2699 128.458 61.3152C128.201 61.3606 127.937 61.4135 127.672 61.4588C127.407 61.5117 127.143 61.5798 126.886 61.6553C126.629 61.7385 126.395 61.8443 126.191 61.9879C125.986 62.1315 125.828 62.2978 125.707 62.5095C125.586 62.7135 125.525 62.9857 125.525 63.3031C125.525 63.8473 125.684 64.2555 125.994 64.5352C126.304 64.8148 126.652 64.9509 127.03 64.9509C127.468 64.9509 127.869 64.8299 128.231 64.5881C128.594 64.3462 128.874 64.0665 129.07 63.7415L129.138 61.1414Z" fill="#CC94A3"/>
<path d="M135.865 56.0998C135.865 55.6387 135.85 55.1852 135.843 54.7317C135.828 54.2782 135.82 53.8549 135.797 53.4392C135.782 53.031 135.76 52.6833 135.737 52.3885C136.062 52.449 136.319 52.4717 136.515 52.4717C136.712 52.4717 136.969 52.4414 137.294 52.3885C137.271 52.6757 137.249 53.0234 137.234 53.4392C137.218 53.8473 137.203 54.2782 137.188 54.7317C137.173 55.1852 137.166 55.6387 137.166 56.0998C137.166 56.5609 137.158 56.9917 137.158 57.3847V60.5216C137.158 60.9146 137.158 61.3454 137.166 61.8065C137.166 62.2676 137.181 62.7211 137.188 63.1746C137.203 63.6281 137.211 64.0514 137.234 64.4596C137.249 64.8602 137.271 65.2003 137.294 65.4649C137.029 65.4422 136.765 65.4271 136.515 65.4271C136.266 65.4271 136.001 65.4346 135.737 65.4649C135.76 65.2003 135.782 64.8677 135.797 64.4596C135.813 64.059 135.828 63.6281 135.843 63.1746C135.85 62.7211 135.865 62.2676 135.865 61.8065C135.865 61.3454 135.873 60.9146 135.873 60.5216V57.3847C135.873 56.9917 135.873 56.5684 135.865 56.0998Z" fill="#CC94A3"/>
<path d="M142.759 56.0998C142.759 55.6387 142.744 55.1852 142.736 54.7317C142.721 54.2782 142.714 53.8549 142.691 53.4392C142.676 53.031 142.653 52.6833 142.63 52.3885C142.955 52.449 143.212 52.4717 143.409 52.4717C143.605 52.4717 143.862 52.4414 144.187 52.3885C144.165 52.6757 144.142 53.0234 144.127 53.4392C144.112 53.8473 144.097 54.2782 144.082 54.7317C144.066 55.1852 144.059 55.6387 144.059 56.0998C144.059 56.5609 144.051 56.9917 144.051 57.3847V60.5216C144.051 60.9146 144.051 61.3454 144.059 61.8065C144.059 62.2676 144.074 62.7211 144.082 63.1746C144.097 63.6281 144.104 64.0514 144.127 64.4596C144.142 64.8602 144.165 65.2003 144.187 65.4649C143.923 65.4422 143.658 65.4271 143.409 65.4271C143.159 65.4271 142.895 65.4346 142.63 65.4649C142.653 65.2003 142.676 64.8677 142.691 64.4596C142.706 64.059 142.721 63.6281 142.736 63.1746C142.744 62.7211 142.759 62.2676 142.759 61.8065C142.759 61.3454 142.766 60.9146 142.766 60.5216V57.3847C142.766 56.9917 142.766 56.5684 142.759 56.0998Z" fill="#CC94A3"/>
<path d="M148.503 61.61C148.503 60.189 148.844 59.0779 149.516 58.2691C150.189 57.4603 151.179 57.0597 152.472 57.0597C153.084 57.0597 153.613 57.158 154.059 57.347C154.505 57.5359 154.875 57.7929 155.178 58.1104C155.48 58.4278 155.699 58.7982 155.843 59.229C155.986 59.6599 156.062 60.1134 156.062 60.5971C156.062 60.7105 156.062 60.8239 156.054 60.9373C156.054 61.0507 156.039 61.1565 156.032 61.2774C155.404 61.2623 154.792 61.2547 154.18 61.2396C153.568 61.2321 152.948 61.2245 152.328 61.2245C151.95 61.2245 151.565 61.2245 151.194 61.2396C150.816 61.2547 150.438 61.2623 150.06 61.2774C150.045 61.3379 150.045 61.421 150.045 61.5344V61.7612C150.045 62.2147 150.113 62.6304 150.242 63.0234C150.378 63.4165 150.567 63.7566 150.824 64.0363C151.081 64.316 151.391 64.5427 151.761 64.709C152.132 64.8753 152.555 64.9584 153.046 64.9584C153.273 64.9584 153.515 64.9282 153.757 64.8602C153.999 64.7997 154.233 64.709 154.467 64.6032C154.694 64.4898 154.913 64.3613 155.117 64.2101C155.321 64.059 155.495 63.9002 155.646 63.7264L155.737 63.7793L155.631 64.6259C155.283 64.9055 154.853 65.1398 154.339 65.3364C153.825 65.5329 153.288 65.6312 152.736 65.6312C152.116 65.6312 151.542 65.5329 151.028 65.3439C150.514 65.155 150.068 64.8753 149.698 64.5125C149.32 64.1497 149.033 63.7188 148.836 63.22C148.632 62.7211 148.534 62.1844 148.534 61.61H148.503ZM152.502 57.6039C152.071 57.6039 151.716 57.7022 151.421 57.8987C151.126 58.0952 150.884 58.3371 150.695 58.6319C150.506 58.9267 150.363 59.2517 150.265 59.5994C150.166 59.9547 150.106 60.2797 150.083 60.5971C150.438 60.6123 150.816 60.6198 151.202 60.6349C151.587 60.6501 151.965 60.65 152.336 60.65C152.706 60.65 153.107 60.6501 153.492 60.6349C153.885 60.6274 154.263 60.6123 154.633 60.5971C154.633 60.2872 154.611 59.9547 154.558 59.607C154.505 59.2593 154.399 58.9343 154.248 58.6395C154.097 58.3447 153.878 58.0877 153.598 57.8912C153.318 57.6946 152.955 57.5964 152.509 57.5964L152.502 57.6039Z" fill="#CC94A3"/>
<path d="M161.527 54.9055C161.489 55.3439 161.466 55.7748 161.451 56.198C161.436 56.6213 161.413 57.0446 161.391 57.4679C161.519 57.4679 161.754 57.4679 162.101 57.4603C162.449 57.4603 162.819 57.4376 163.227 57.415C163.212 57.4528 163.212 57.5132 163.212 57.6039V57.9668C163.212 58.0499 163.212 58.1028 163.227 58.1406C163.076 58.133 162.918 58.1179 162.759 58.1179C162.6 58.1179 162.426 58.1104 162.237 58.1104H161.391C161.383 58.1557 161.368 58.3447 161.345 58.6621C161.33 58.9872 161.315 59.3726 161.3 59.811C161.285 60.257 161.277 60.7181 161.277 61.2018C161.277 61.6856 161.27 62.124 161.27 62.5019C161.27 62.8269 161.277 63.1444 161.292 63.4543C161.308 63.7642 161.368 64.0438 161.459 64.2933C161.549 64.5427 161.686 64.7392 161.874 64.8904C162.056 65.0416 162.328 65.1172 162.668 65.1172C162.759 65.1172 162.887 65.1096 163.039 65.0794C163.197 65.0567 163.333 65.0265 163.447 64.9962V65.412C163.25 65.4497 163.031 65.4875 162.797 65.5404C162.562 65.5934 162.328 65.616 162.116 65.616C161.391 65.616 160.854 65.4346 160.506 65.0794C160.159 64.7241 159.985 64.195 159.985 63.4996C159.985 63.1897 159.985 62.8496 160 62.4868C160.008 62.124 160.023 61.7234 160.045 61.2925C160.06 60.8617 160.076 60.3779 160.091 59.8564C160.106 59.3349 160.106 58.7453 160.106 58.0952H159.554C159.463 58.0952 159.365 58.0952 159.259 58.1028C159.153 58.1028 159.048 58.1179 158.927 58.1255C158.934 58.0575 158.949 57.9894 158.949 57.929C158.949 57.8685 158.957 57.8005 158.957 57.7324C158.957 57.672 158.957 57.6191 158.949 57.5586C158.949 57.4981 158.934 57.4452 158.927 57.3847C159.448 57.4225 159.826 57.4376 160.068 57.4376C160.053 57.2109 160.045 56.9161 160.045 56.5684C160.045 56.2207 160.023 55.8655 160 55.4951L161.436 54.8904H161.519L161.527 54.9055Z" fill="#CC94A3"/>
<path d="M174.112 63.8322C174.271 64.0438 174.46 64.2404 174.686 64.4142C174.913 64.5881 175.178 64.7317 175.472 64.8375C175.767 64.9433 176.107 65.0038 176.478 65.0038C176.848 65.0038 177.203 64.9357 177.506 64.8073C177.808 64.6712 178.073 64.4974 178.284 64.2706C178.496 64.0438 178.662 63.7793 178.776 63.4769C178.889 63.167 178.949 62.842 178.949 62.5019C178.949 61.9728 178.813 61.5495 178.541 61.2396C178.269 60.9297 177.929 60.6652 177.528 60.4611C177.128 60.257 176.689 60.0605 176.221 59.8866C175.752 59.7128 175.314 59.4936 174.913 59.2366C174.512 58.9796 174.172 58.647 173.9 58.2389C173.628 57.8382 173.492 57.294 173.492 56.6138C173.492 56.13 173.583 55.6841 173.749 55.291C173.923 54.8904 174.172 54.5503 174.505 54.263C174.837 53.9758 175.231 53.7491 175.692 53.5903C176.153 53.4316 176.674 53.3484 177.249 53.3484C177.823 53.3484 178.284 53.4165 178.685 53.545C179.085 53.6735 179.463 53.8851 179.811 54.1572C179.705 54.3537 179.622 54.5578 179.554 54.777C179.486 54.9962 179.418 55.2759 179.35 55.6085H179.146C179.085 55.4497 179.01 55.2683 178.912 55.0794C178.813 54.8904 178.677 54.7165 178.511 54.5503C178.345 54.3915 178.141 54.2555 177.914 54.1421C177.68 54.0287 177.407 53.9758 177.082 53.9758C176.757 53.9758 176.463 54.0287 176.19 54.1345C175.918 54.2404 175.684 54.384 175.48 54.5729C175.276 54.7619 175.125 54.9887 175.011 55.2532C174.898 55.5178 174.845 55.805 174.845 56.1224C174.845 56.6667 174.981 57.0899 175.253 57.4074C175.525 57.7249 175.865 57.9819 176.266 58.1935C176.667 58.4051 177.105 58.5941 177.574 58.7679C178.042 58.9342 178.481 59.1383 178.881 59.3802C179.282 59.6221 179.622 59.932 179.894 60.3175C180.166 60.7029 180.302 61.2094 180.302 61.8443C180.302 62.3734 180.204 62.8798 180.015 63.3484C179.826 63.8246 179.546 64.2328 179.184 64.5881C178.821 64.9433 178.375 65.2079 177.853 65.4044C177.324 65.5933 176.727 65.6916 176.062 65.6916C175.344 65.6916 174.769 65.5933 174.324 65.4044C173.878 65.2154 173.507 64.9962 173.205 64.7543C173.311 64.4898 173.379 64.2479 173.424 64.0363C173.462 63.8246 173.5 63.545 173.537 63.2124H173.741C173.832 63.4165 173.961 63.6281 174.112 63.8473V63.8322Z" fill="#CC94A3"/>
<path d="M186.047 54.9055C186.009 55.3439 185.986 55.7748 185.971 56.198C185.956 56.6213 185.933 57.0446 185.911 57.4679C186.039 57.4679 186.274 57.4679 186.621 57.4603C186.969 57.4603 187.339 57.4376 187.747 57.415C187.732 57.4528 187.732 57.5132 187.732 57.6039V57.9668C187.732 58.0499 187.732 58.1028 187.747 58.1406C187.596 58.133 187.438 58.1179 187.279 58.1179C187.12 58.1179 186.946 58.1104 186.757 58.1104H185.911C185.903 58.1557 185.888 58.3447 185.865 58.6621C185.85 58.9872 185.835 59.3726 185.82 59.811C185.805 60.257 185.797 60.7181 185.797 61.2018C185.797 61.6856 185.79 62.124 185.79 62.5019C185.79 62.8269 185.797 63.1444 185.812 63.4543C185.828 63.7642 185.888 64.0438 185.979 64.2933C186.069 64.5427 186.206 64.7392 186.395 64.8904C186.576 65.0416 186.848 65.1172 187.188 65.1172C187.279 65.1172 187.407 65.1096 187.559 65.0794C187.717 65.0567 187.853 65.0265 187.967 64.9962V65.412C187.77 65.4497 187.551 65.4875 187.317 65.5404C187.082 65.5934 186.848 65.616 186.636 65.616C185.911 65.616 185.374 65.4346 185.026 65.0794C184.679 64.7241 184.505 64.195 184.505 63.4996C184.505 63.1897 184.505 62.8496 184.52 62.4868C184.528 62.124 184.543 61.7234 184.565 61.2925C184.58 60.8617 184.596 60.3779 184.611 59.8564C184.626 59.3349 184.626 58.7453 184.626 58.0952H184.074C183.983 58.0952 183.885 58.0952 183.779 58.1028C183.673 58.1028 183.568 58.1179 183.447 58.1255C183.454 58.0575 183.469 57.9894 183.469 57.929C183.469 57.8685 183.477 57.8005 183.477 57.7324C183.477 57.672 183.477 57.6191 183.469 57.5586C183.469 57.4981 183.454 57.4452 183.447 57.3847C183.968 57.4225 184.346 57.4376 184.588 57.4376C184.573 57.2109 184.565 56.9161 184.565 56.5684C184.565 56.2207 184.543 55.8655 184.52 55.4951L185.956 54.8904H186.039L186.047 54.9055Z" fill="#CC94A3"/>
<path d="M191.368 62.8345C191.368 62.2222 191.376 61.7007 191.391 61.2699C191.406 60.839 191.413 60.4082 191.413 59.9773C191.413 59.5767 191.413 59.1383 191.406 58.6621C191.398 58.186 191.391 57.7098 191.383 57.226C191.67 57.2865 191.912 57.3092 192.109 57.3092C192.29 57.3092 192.532 57.2789 192.819 57.226C192.759 57.9214 192.721 58.6773 192.691 59.5011C192.661 60.325 192.646 61.1716 192.646 62.0408C192.646 62.638 192.698 63.099 192.804 63.4165C192.91 63.734 193.039 63.9758 193.182 64.1346C193.341 64.316 193.545 64.4747 193.794 64.5956C194.044 64.7166 194.331 64.777 194.671 64.777C195.155 64.777 195.563 64.6712 195.881 64.4596C196.206 64.2479 196.44 63.9834 196.591 63.6735C196.674 63.477 196.735 63.3107 196.78 63.1746C196.825 63.0386 196.863 62.8496 196.893 62.6228C196.924 62.3961 196.939 62.0786 196.946 61.6856C196.946 61.2925 196.954 60.7559 196.954 60.0756V58.6243C196.954 58.3674 196.954 58.1255 196.946 57.8987C196.946 57.6644 196.931 57.4452 196.924 57.2411C197.052 57.2638 197.173 57.2865 197.287 57.3016C197.4 57.3167 197.521 57.3243 197.649 57.3243C197.778 57.3243 197.899 57.3167 198.012 57.3016C198.126 57.2865 198.239 57.2638 198.36 57.2411C198.299 58.1406 198.269 59.0098 198.254 59.8488C198.239 60.6878 198.239 61.5722 198.239 62.5095C198.239 63.031 198.239 63.5374 198.254 64.0363C198.269 64.5352 198.284 65.0114 198.307 65.4724C198.08 65.4497 197.853 65.4346 197.634 65.4346C197.415 65.4346 197.188 65.4422 196.961 65.4724C196.969 65.3666 196.984 65.2608 196.984 65.1398C196.984 65.0265 196.992 64.9055 196.992 64.777V64.0287H196.954C196.652 64.5805 196.266 64.9887 195.79 65.2457C195.314 65.5027 194.8 65.6387 194.248 65.6387C193.348 65.6387 192.638 65.3968 192.124 64.9206C191.61 64.4445 191.353 63.7491 191.353 62.8496L191.368 62.8345Z" fill="#CC94A3"/>
<path d="M208.927 63.8095C208.836 63.9909 208.708 64.195 208.556 64.4066C208.405 64.6183 208.201 64.8224 207.967 65.0038C207.732 65.1852 207.453 65.3364 207.128 65.4573C206.803 65.5782 206.432 65.6311 206.002 65.6311C205.571 65.6311 205.132 65.5556 204.709 65.4044C204.286 65.2532 203.915 65.0113 203.583 64.6712C203.25 64.3311 202.986 63.8927 202.789 63.356C202.593 62.8193 202.487 62.1769 202.487 61.4286C202.487 60.6803 202.6 60.0454 202.819 59.5087C203.039 58.9645 203.326 58.511 203.673 58.1481C204.021 57.7853 204.422 57.5132 204.868 57.3318C205.314 57.1504 205.76 57.0597 206.213 57.0597C207.498 57.0597 208.383 57.6342 208.881 58.7906H208.919V57.0899C208.919 56.6515 208.919 56.2131 208.912 55.7672C208.912 55.3212 208.896 54.898 208.896 54.4973C208.896 54.0967 208.881 53.7113 208.881 53.356C208.881 53.0007 208.866 52.6833 208.859 52.4036C208.995 52.4263 209.131 52.449 209.259 52.4641C209.388 52.4792 209.516 52.4868 209.637 52.4868C209.758 52.4868 209.887 52.4792 210.008 52.4641C210.129 52.449 210.265 52.4263 210.416 52.4036C210.378 52.774 210.355 53.3107 210.325 54.006C210.302 54.7014 210.28 55.4724 210.265 56.319C210.249 57.1655 210.234 58.0272 210.219 58.9191C210.212 59.811 210.204 60.6198 210.204 61.3605C210.204 62.1542 210.204 62.8723 210.219 63.5072C210.234 64.1421 210.242 64.7921 210.257 65.4648C210.023 65.4422 209.804 65.4271 209.584 65.4271C209.38 65.4271 209.153 65.4346 208.927 65.4648L208.98 63.8171H208.942L208.927 63.8095ZM204.014 61.5193C204.014 62.2147 204.082 62.7816 204.233 63.2351C204.376 63.6886 204.565 64.0438 204.785 64.3159C205.011 64.5881 205.268 64.777 205.556 64.8753C205.843 64.9735 206.13 65.034 206.402 65.034C206.856 65.034 207.241 64.9206 207.566 64.6939C207.891 64.4671 208.156 64.1723 208.375 63.8095C208.587 63.4467 208.745 63.031 208.844 62.5699C208.942 62.1088 208.995 61.6478 208.995 61.1867C208.995 60.0756 208.783 59.2366 208.352 58.647C207.921 58.0574 207.294 57.7702 206.463 57.7702C206.047 57.7702 205.684 57.8685 205.382 58.0574C205.072 58.2464 204.822 58.511 204.618 58.8511C204.414 59.1912 204.263 59.5918 204.165 60.0453C204.067 60.4989 204.021 60.9902 204.021 61.5117L204.014 61.5193Z" fill="#CC94A3"/>
<path d="M214.989 54.2101C214.989 53.9683 215.072 53.7566 215.246 53.5903C215.419 53.424 215.624 53.3333 215.873 53.3333C216.122 53.3333 216.327 53.424 216.493 53.5903C216.659 53.7566 216.75 53.9683 216.75 54.2101C216.75 54.452 216.667 54.6637 216.493 54.8375C216.319 55.0114 216.115 55.0945 215.873 55.0945C215.631 55.0945 215.419 55.0114 215.246 54.8375C215.072 54.6637 214.989 54.4596 214.989 54.2101ZM215.231 60.4611C215.231 59.9395 215.223 59.3953 215.208 58.8209C215.193 58.2464 215.155 57.7173 215.094 57.2185C215.419 57.2789 215.676 57.3016 215.873 57.3016C216.07 57.3016 216.327 57.2714 216.652 57.2185C216.591 57.7173 216.553 58.2464 216.538 58.8209C216.523 59.3953 216.515 59.9395 216.515 60.4611V62.26C216.515 62.7816 216.523 63.3258 216.538 63.9002C216.553 64.4747 216.591 64.9887 216.652 65.4497C216.387 65.4271 216.122 65.412 215.873 65.412C215.624 65.412 215.359 65.4195 215.094 65.4497C215.155 64.9887 215.193 64.4747 215.208 63.9002C215.223 63.3258 215.231 62.7816 215.231 62.26V60.4611Z" fill="#CC94A3"/>
<path d="M220.968 61.3681C220.968 60.582 221.088 59.9169 221.338 59.3651C221.587 58.8133 221.912 58.3749 222.313 58.0348C222.714 57.6946 223.167 57.4452 223.674 57.2865C224.18 57.1277 224.671 57.0522 225.17 57.0522C225.669 57.0522 226.183 57.1277 226.674 57.2865C227.173 57.4452 227.619 57.6871 228.027 58.0348C228.428 58.3749 228.76 58.8209 229.002 59.3651C229.252 59.9093 229.373 60.582 229.373 61.3681C229.373 62.1542 229.252 62.8193 229.002 63.3711C228.753 63.9229 228.428 64.3613 228.027 64.7014C227.627 65.0416 227.173 65.2834 226.674 65.4195C226.175 65.5556 225.677 65.6236 225.17 65.6236C224.664 65.6236 224.172 65.5556 223.674 65.4195C223.175 65.2834 222.721 65.0416 222.313 64.7014C221.912 64.3613 221.58 63.9153 221.338 63.3711C221.096 62.8269 220.968 62.1542 220.968 61.3681ZM222.487 61.3681C222.487 61.8519 222.532 62.3205 222.615 62.774C222.706 63.2275 222.85 63.6281 223.054 63.9758C223.258 64.3311 223.537 64.6107 223.885 64.8148C224.233 65.0189 224.656 65.1247 225.17 65.1247C225.684 65.1247 226.107 65.0189 226.455 64.8148C226.803 64.6032 227.082 64.3235 227.287 63.9758C227.491 63.6206 227.642 63.22 227.725 62.774C227.808 62.3205 227.853 61.8594 227.853 61.3681C227.853 60.8768 227.808 60.4157 227.725 59.9622C227.634 59.5087 227.491 59.1081 227.287 58.7604C227.082 58.4051 226.803 58.1255 226.455 57.9214C226.107 57.7173 225.684 57.6115 225.17 57.6115C224.656 57.6115 224.233 57.7173 223.885 57.9214C223.537 58.1255 223.258 58.4127 223.054 58.7604C222.85 59.1156 222.698 59.5163 222.615 59.9622C222.532 60.4157 222.487 60.8844 222.487 61.3681Z" fill="#CC94A3"/>
</g>
<defs>
<clipPath id="clip0_694_47">
<rect width="279.395" height="70" fill="white"/>
</clipPath>
</defs>
</svg>
