<svg width="70" height="70" viewBox="0 0 70 70" fill="none" xmlns="http://www.w3.org/2000/svg">
<g clip-path="url(#clip0_582_1063)">
<path d="M56.4809 28.499C56.9686 28.499 57.4363 28.6927 57.7812 29.0376C58.1261 29.3825 58.3198 29.8502 58.3198 30.3379C58.3198 30.8256 58.1261 31.2933 57.7812 31.6382C57.4363 31.9831 56.9686 32.1768 56.4809 32.1768H51.3625V35.4584H56.4809C56.9679 35.4584 57.4349 35.6518 57.7792 35.9962C58.1236 36.3405 58.317 36.8075 58.317 37.2945C58.317 37.7815 58.1236 38.2485 57.7792 38.5928C57.4349 38.9372 56.9679 39.1306 56.4809 39.1306H49.5222C49.037 39.1277 48.5727 38.9332 48.2301 38.5896C47.8876 38.246 47.6946 37.7811 47.6931 37.2959V23.3799C47.6946 22.893 47.8886 22.4265 48.2329 22.0822C48.5772 21.7379 49.0437 21.5439 49.5306 21.5424H56.49C56.7313 21.543 56.9701 21.591 57.1929 21.6839C57.4156 21.7767 57.6178 21.9125 57.7881 22.0836C57.9583 22.2546 58.0932 22.4575 58.185 22.6806C58.2769 22.9037 58.3239 23.1428 58.3233 23.3841C58.3227 23.6254 58.2747 23.8642 58.1818 24.087C58.089 24.3097 57.9532 24.5119 57.7821 24.6822C57.6111 24.8524 57.4082 24.9873 57.1851 25.0791C56.962 25.171 56.7229 25.218 56.4816 25.2174H51.3625V28.499H56.4809ZM45.2375 37.2952C45.2365 37.6805 45.1143 38.0557 44.8881 38.3677C44.662 38.6796 44.3434 38.9125 43.9775 39.0333C43.79 39.0935 43.5942 39.124 43.3972 39.1236C43.109 39.1298 42.8235 39.0668 42.5647 38.9398C42.3059 38.8129 42.0813 38.6258 41.9097 38.3942L34.7844 28.7195V37.2945C34.7892 37.5382 34.7453 37.7804 34.6553 38.007C34.5653 38.2336 34.4311 38.4399 34.2604 38.6139C34.0897 38.788 33.886 38.9262 33.6613 39.0206C33.4365 39.115 33.1952 39.1636 32.9515 39.1636C32.7077 39.1636 32.4664 39.115 32.2416 39.0206C32.0169 38.9262 31.8132 38.788 31.6425 38.6139C31.4718 38.4399 31.3376 38.2336 31.2476 38.007C31.1576 37.7804 31.1137 37.5382 31.1185 37.2945V23.3799C31.1185 22.9955 31.2398 22.6209 31.465 22.3093C31.6902 21.9978 32.0079 21.7652 32.3729 21.6446C32.5546 21.5808 32.7459 21.5483 32.9385 21.5487C33.2191 21.5572 33.4943 21.628 33.7441 21.7561C33.9939 21.8842 34.212 22.0664 34.3826 22.2893L41.5625 32.0018V23.3799C41.5625 22.8926 41.7561 22.4252 42.1007 22.0806C42.4453 21.736 42.9127 21.5424 43.4 21.5424C43.8873 21.5424 44.3547 21.736 44.6993 22.0806C45.0439 22.4252 45.2375 22.8926 45.2375 23.3799V37.2952ZM28.4928 37.2952C28.4928 37.5361 28.4453 37.7747 28.3531 37.9973C28.2609 38.2199 28.1258 38.4222 27.9554 38.5925C27.7851 38.7629 27.5828 38.898 27.3602 38.9902C27.1376 39.0824 26.899 39.1299 26.6581 39.1299C26.4172 39.1299 26.1786 39.0824 25.956 38.9902C25.7334 38.898 25.5311 38.7629 25.3608 38.5925C25.1904 38.4222 25.0553 38.2199 24.9631 37.9973C24.8709 37.7747 24.8234 37.5361 24.8234 37.2952V23.3799C24.8234 23.139 24.8709 22.9004 24.9631 22.6778C25.0553 22.4552 25.1904 22.2529 25.3608 22.0826C25.5311 21.9122 25.7334 21.7771 25.956 21.6849C26.1786 21.5927 26.4172 21.5452 26.6581 21.5452C26.899 21.5452 27.1376 21.5927 27.3602 21.6849C27.5828 21.7771 27.7851 21.9122 27.9554 22.0826C28.1258 22.2529 28.2609 22.4552 28.3531 22.6778C28.4453 22.9004 28.4928 23.139 28.4928 23.3799V37.2952ZM21.3003 39.1299H14.3409C13.8549 39.1272 13.3895 38.9331 13.0456 38.5897C12.7017 38.2463 12.5069 37.7812 12.5034 37.2952V23.3799C12.5034 22.8926 12.697 22.4252 13.0416 22.0806C13.3862 21.736 13.8536 21.5424 14.3409 21.5424C14.8282 21.5424 15.2956 21.736 15.6402 22.0806C15.9848 22.4252 16.1784 22.8926 16.1784 23.3799V35.4577H21.3003C21.7873 35.4577 22.2543 35.6511 22.5986 35.9955C22.943 36.3398 23.1364 36.8068 23.1364 37.2938C23.1364 37.7808 22.943 38.2478 22.5986 38.5921C22.2543 38.9365 21.7873 39.1299 21.3003 39.1299ZM70 29.8143C70 14.149 54.2934 1.3999 35 1.3999C15.7066 1.3999 0 14.149 0 29.8143C0 43.8458 12.4544 55.603 29.2684 57.8395C30.4087 58.0789 31.9606 58.592 32.354 59.5601C32.6256 60.5887 32.6634 61.665 32.4646 62.7101L31.9865 65.6851C31.8556 66.5629 31.2865 69.1445 35.0462 67.5667C38.8059 65.9889 55.2181 55.6695 62.5681 47.2205C67.5969 41.7108 70 36.0695 70 29.8143Z" fill="white"/>
</g>
<defs>
<clipPath id="clip0_582_1063">
<rect width="70" height="70" fill="white"/>
</clipPath>
</defs>
</svg>
